<mxfile host="app.diagrams.net" modified="2023-09-06T05:57:10.367Z" agent="Mozilla/5.0 (Macintosh; Intel Mac OS X 10_15_7) AppleWebKit/537.36 (KHTML, like Gecko) Chrome/116.0.0.0 Safari/537.36" version="21.7.2" etag="gnnHrWExxaDNccwfXlXk" type="github">
  <diagram name="Page-1" id="kqVv0zSeZcQ7u5gThuMk">
    <mxGraphModel>
      <root>
        <mxCell id="0" />
        <mxCell id="1" parent="0" />
      </root>
    </mxGraphModel>
  </diagram>
</mxfile>
